<svg width="214" height="162" viewBox="0 0 214 162" fill="none" xmlns="http://www.w3.org/2000/svg">
<path d="M181.452 40.4303L185.434 60.7643C188.033 74.0402 181.276 84.0882 168 86.6879L139.264 92.3151L127.762 33.5817C125.936 24.2549 132.102 15.1954 141.428 13.369C150.603 11.6595 159.73 13.7112 166.964 18.5763C174.215 23.5255 179.642 31.1876 181.452 40.4303Z" stroke="#246BFD" stroke-width="10.8869" stroke-miterlimit="10" stroke-linecap="round" stroke-linejoin="round"/>
<path d="M15.0473 81.7406L38.0828 199.376C39.4484 206.35 48.1202 208.752 52.8431 203.465L65.1052 189.896C67.9726 186.717 72.7439 186.132 76.3611 188.564L93.0569 199.865C96.9756 202.5 102.353 201.447 104.989 197.529L116.34 180.648C118.705 177.132 123.345 175.874 127.116 177.753L143.59 185.695C149.942 188.726 157.067 183.23 155.718 176.34L127.746 33.4977C125.936 24.2549 132.017 15.2118 141.26 13.4019L48.8328 31.5012L40.4303 33.1466C15.2228 38.0828 9.76556 54.7686 13.4019 73.3381L15.0473 81.7406Z" stroke="#246BFD" stroke-width="10.8869" stroke-miterlimit="10" stroke-linecap="round" stroke-linejoin="round"/>
<path d="M55.694 99.9552L101.908 90.9055" stroke="#246BFD" stroke-width="10.8869" stroke-linecap="round" stroke-linejoin="round"/>
<path d="M83.3258 118.537L74.2761 72.3235" stroke="#246BFD" stroke-width="10.8869" stroke-linecap="round" stroke-linejoin="round"/>
</svg>
