<svg width="297" height="190" viewBox="0 0 297 190" fill="none" xmlns="http://www.w3.org/2000/svg">
<path d="M166.773 219.132L74.4871 195.285C70.3637 194.219 66.5866 189.787 66.2269 185.505L54.9596 61.3135C53.3785 43.5194 61.4465 40.2629 72.7999 53.8793L104.011 91.1647C109.251 97.2317 117.099 96.8509 121.7 90.3944L150.877 48.8146C160.181 35.5088 169.311 37.8682 171.004 54.0153L176.384 104.525C177.281 112.402 183.963 116.538 191.388 113.744L233.942 97.4047C252.099 90.3665 258.016 97.8653 247.141 114.012L178.785 214.8C176.348 218.15 170.897 220.198 166.773 219.132Z" stroke="#246BFD" stroke-width="10.2435" stroke-linecap="round" stroke-linejoin="round"/>
<path d="M108.72 151.974L157.808 164.659" stroke="#246BFD" stroke-width="10.2435" stroke-linecap="round" stroke-linejoin="round"/>
</svg>
