<svg width="677" height="172" viewBox="0 0 677 172" fill="none" xmlns="http://www.w3.org/2000/svg">
<path d="M55.9035 149.14C119.139 153.969 252.068 154.247 277.903 116.723C310.197 69.8191 555.271 56.0293 580.956 81.0258" stroke="#35426F" stroke-width="9.79608"/>
<circle cx="52.4698" cy="151.25" r="39.5119" transform="rotate(-12.8445 52.4698 151.25)" fill="#2D3551"/>
<path d="M42.438 139.274L54.1895 136.594L60.4003 163.833L54.0965 165.27L49.0392 143.09L43.5914 144.332L42.438 139.274Z" fill="white"/>
<circle cx="283.743" cy="115.183" r="54.5898" transform="rotate(2.85615 283.743 115.183)" fill="#2D3551"/>
<path d="M281.765 127.521L298.342 128.348L297.979 135.618L268.846 134.164L269.134 128.382L284.704 115.08C288.281 112.001 288.986 110.049 289.079 108.176C289.23 105.147 287.225 103.28 283.15 103.077C279.846 102.912 276.974 104.039 274.972 106.534L268.682 102.024C271.873 97.8217 277.411 95.2822 284.35 95.6284C292.941 96.057 298.449 100.749 298.1 107.743C297.913 111.488 296.696 114.85 291.049 119.592L281.765 127.521Z" fill="white"/>
<circle cx="592.501" cy="84.4695" r="69.1597" transform="rotate(-13.0439 592.501 84.4695)" fill="#2D3551"/>
<path d="M596.991 78.87C605.881 78.2445 611.467 82.5438 613.091 89.5536C614.951 97.5841 610.461 106.369 596.918 109.507C590.248 111.052 582.949 110.807 577.564 108.612L579.897 99.1799C584.134 101.066 589.533 101.465 594.501 100.314C600.014 99.0369 602.896 96.0027 601.998 92.1235C601.162 88.5166 597.987 86.8857 591.726 88.3362L586.69 89.5029L585.003 82.221L592.233 68.8575L571.953 73.556L569.903 64.7087L603.25 56.983L604.906 64.1289L596.991 78.87Z" fill="white"/>
</svg>
