<svg width="658" height="248" viewBox="0 0 658 248" fill="none" xmlns="http://www.w3.org/2000/svg">
<rect x="15" y="193" width="21" height="95" rx="10.5" fill="#3B4567"/>
<rect x="356" y="193" width="21" height="95" rx="10.5" fill="#3B4567"/>
<rect x="58" y="124" width="21" height="164" rx="10.5" fill="#3B4567"/>
<rect x="399" y="136" width="21" height="152" rx="10.5" fill="#3B4567"/>
<rect x="101" y="171" width="21" height="117" rx="10.5" fill="#3B4567"/>
<rect x="442" y="156" width="21" height="132" rx="10.5" fill="#3B4567"/>
<rect x="144" y="82" width="21" height="206" rx="10.5" fill="#3B4567"/>
<rect x="485" y="116" width="21" height="172" rx="10.5" fill="#3B4567"/>
<rect x="187" y="116" width="21" height="172" rx="10.5" fill="#3B4567"/>
<rect x="528" y="150" width="21" height="138" rx="10.5" fill="#3B4567"/>
<rect x="230" y="201" width="21" height="87" rx="10.5" fill="#3B4567"/>
<rect x="571" y="109" width="21" height="179" rx="10.5" fill="#3B4567"/>
<rect x="273" y="136" width="21" height="152" rx="10.5" fill="#3B4567"/>
<rect x="314" y="57" width="21" height="231" rx="10.5" fill="#3B4567"/>
<rect x="614" y="57" width="21" height="231" rx="10.5" fill="#3B4567"/>
<path d="M84.2814 190.247L82.3893 192.575L84.2814 190.247ZM276.99 179.461L279.322 181.349L276.99 179.461ZM471.267 169.714L470.188 172.514L471.267 169.714ZM637.462 23.473C637.724 21.8369 636.609 20.2988 634.973 20.0375C633.337 19.7763 631.799 20.8909 631.538 22.527L637.462 23.473ZM-111.856 222.773C-87.8698 212.875 -48.2834 197.748 -9.99176 188.963C9.16012 184.569 27.8603 181.793 44.0565 182.004C60.3241 182.217 73.6101 185.439 82.3893 192.575L86.1736 187.919C75.8474 179.526 60.9291 176.224 44.1349 176.005C27.2693 175.785 8.05013 178.668 -11.3334 183.115C-50.1127 192.012 -90.0616 207.289 -114.144 217.227L-111.856 222.773ZM82.3893 192.575C109.8 214.853 150.331 222.719 188.053 219.84C225.693 216.966 261.549 203.305 279.322 181.349L274.658 177.574C258.382 197.682 224.493 211.04 187.596 213.857C150.78 216.667 111.981 208.894 86.1736 187.919L82.3893 192.575ZM279.322 181.349C300.363 155.354 328.206 145.557 360.758 146.019C393.46 146.484 430.749 157.315 470.188 172.514L472.346 166.915C432.756 151.658 394.65 140.5 360.843 140.02C326.885 139.538 297.105 149.842 274.658 177.574L279.322 181.349ZM470.188 172.514C497.878 183.184 533.141 188.361 564.95 169.14C596.727 149.939 624.136 106.937 637.462 23.473L631.538 22.527C618.326 105.271 591.408 146.143 561.847 164.005C532.319 181.847 499.235 177.277 472.346 166.915L470.188 172.514Z" fill="#246BFD"/>
<circle cx="69" cy="182.5" r="9" fill="#246BFD" stroke="#3B4567" stroke-width="3"/>
<circle cx="155" cy="217.5" r="9" fill="#246BFD" stroke="#3B4567" stroke-width="3"/>
<circle cx="263" cy="190.5" r="9" fill="#246BFD" stroke="#1C2232" stroke-width="3"/>
<circle cx="361" cy="141.5" r="9" fill="#246BFD" stroke="#1C2232" stroke-width="3"/>
<circle cx="517" cy="178.5" r="9" fill="#246BFD" stroke="#1C2232" stroke-width="3"/>
<path d="M631.776 9.15034C634.007 6.17699 638.62 6.73402 640.08 10.153L647.468 27.4616C648.927 30.8806 646.138 34.5973 642.448 34.1517L623.764 31.8957C620.073 31.45 618.249 27.1763 620.48 24.2029L631.776 9.15034Z" fill="#246BFD"/>
</svg>
