<svg width="342" height="282" viewBox="0 0 342 282" fill="none" xmlns="http://www.w3.org/2000/svg">
<path d="M123.311 175.607L138.353 195.894C140.394 198.706 144.932 200.916 148.435 200.949L169.136 200.718C182.37 200.582 187.007 209.363 179.418 220.298L166.485 238.763C164.341 241.825 163.746 247.216 165.267 250.771L173.183 269.385C179.429 284.064 172.281 291.505 157.374 285.835L136.546 277.956C132.792 276.502 127.112 277.503 124.082 280.152L107.201 294.676C95.1154 305.021 85.8686 300.55 86.7219 284.62L87.7991 264.421C88.0274 260.64 85.625 255.776 82.5491 253.553L64.0844 240.62C53.2282 233.017 54.5857 223.18 67.0551 218.705L86.5875 211.847C89.8824 210.697 93.3775 206.991 94.3342 203.65L101.538 179.444C105.327 166.332 115.109 164.608 123.311 175.607Z" stroke="#246BFD" stroke-width="9.35254" stroke-linecap="round" stroke-linejoin="round"/>
<path d="M64.7206 184.223L17.3881 192.563" stroke="#246BFD" stroke-width="9.35254" stroke-linecap="round" stroke-linejoin="round"/>
<path d="M35.0071 246.395L27.1183 247.785" stroke="#246BFD" stroke-width="9.35254" stroke-linecap="round" stroke-linejoin="round"/>
<path d="M356.142 159.817C361.62 152.073 366.218 143.301 369.456 133.251C377.863 107.154 363.637 79.2656 337.709 70.9124C322.339 65.9603 306.347 69.012 294.117 77.7496C289.288 63.5157 278.001 51.6755 262.714 46.7506C236.787 38.3974 208.956 52.736 200.548 78.8322C181.502 137.95 224.99 190.461 246.761 206.797C248.033 207.766 249.81 208.618 251.752 209.244" stroke="#246BFD" stroke-width="10.1693" stroke-linecap="round" stroke-linejoin="round"/>
<path d="M299.984 225.622C314.909 230.431 330.907 222.229 335.716 207.304C340.525 192.378 332.323 176.38 317.398 171.571C302.472 166.763 286.474 174.964 281.665 189.89C276.857 204.815 285.058 220.813 299.984 225.622Z" stroke="#246BFD" stroke-width="10.1693" stroke-linecap="round" stroke-linejoin="round"/>
<path d="M330.444 241.028L324.719 229.862" stroke="#246BFD" stroke-width="10.1693" stroke-linecap="round" stroke-linejoin="round"/>
</svg>
