<svg width="209" height="151" viewBox="0 0 209 151" fill="none" xmlns="http://www.w3.org/2000/svg">
<path d="M73.8455 98.926C74.8005 104.673 80.0598 108.63 85.508 107.725L96.7029 105.865C101.479 105.071 104.678 100.321 103.847 95.3206C102.942 89.8724 100.231 88.3289 96.5124 87.6431L77.5588 84.3506C73.7655 83.6772 71.0548 82.1336 70.1494 76.6854C69.3184 71.6851 72.5172 66.9353 77.2936 66.1415L88.4886 64.2811C94.0238 63.4379 99.2707 67.321 100.226 73.0677" stroke="#246BFD" stroke-width="8" stroke-linecap="round" stroke-linejoin="round"/>
<path d="M90.5705 107.267L91.4883 112.79" stroke="#246BFD" stroke-width="8" stroke-linecap="round" stroke-linejoin="round"/>
<path d="M82.583 59.2037L83.5504 65.025" stroke="#246BFD" stroke-width="8" stroke-linecap="round" stroke-linejoin="round"/>
<path d="M96.8585 145.566C129.792 140.093 152.053 108.958 146.58 76.0246C141.107 43.091 109.972 20.8299 77.0386 26.303C44.1051 31.7761 21.8439 62.9109 27.317 95.8444C32.7901 128.778 63.9249 151.039 96.8585 145.566Z" stroke="#246BFD" stroke-width="8" stroke-linecap="round" stroke-linejoin="round"/>
<path d="M121.53 156.038C129.822 164.4 141.823 168.771 154.361 166.687C174.736 163.301 188.551 143.98 185.165 123.605C183.106 111.216 175.163 101.262 164.717 96.0953" stroke="#246BFD" stroke-width="8" stroke-linecap="round" stroke-linejoin="round"/>
</svg>
