<svg width="197" height="145" viewBox="0 0 197 145" fill="none" xmlns="http://www.w3.org/2000/svg">
<path d="M83.7593 113.433C85.1596 119.959 91.3312 124.124 97.5204 122.796L110.168 120.082C115.55 118.927 118.941 113.414 117.714 107.696C116.4 101.574 113.233 99.931 108.961 99.37L87.1954 96.6513C82.9231 96.0903 79.7702 94.515 78.4422 88.3257C77.2296 82.6747 80.6062 77.0945 85.9881 75.9397L98.6357 73.2258C104.825 71.8977 110.996 76.0624 112.397 82.588" stroke="#246BFD" stroke-width="8.16683" stroke-linecap="round" stroke-linejoin="round"/>
<path d="M91.5556 67.7783L104.548 128.325" stroke="#246BFD" stroke-width="8.16683" stroke-linecap="round" stroke-linejoin="round"/>
<path d="M165.326 83.616C173.294 120.751 149.622 157.357 112.487 165.326C75.352 173.294 38.746 149.623 30.7776 112.487C22.8091 75.352 46.4807 38.7461 83.616 30.7776" stroke="#246BFD" stroke-width="8.16683" stroke-linecap="round" stroke-linejoin="round"/>
<path d="M118.697 30.2872L124.471 57.1968L151.38 51.4225" stroke="#246BFD" stroke-width="8.16683" stroke-linecap="round" stroke-linejoin="round"/>
<path d="M150.89 16.3419L124.471 57.1968" stroke="#246BFD" stroke-width="8.16683" stroke-linecap="round" stroke-linejoin="round"/>
</svg>